<svg width="22" height="22" viewBox="0 0 22 22" fill="none" xmlns="http://www.w3.org/2000/svg">
<g id="Essential Icons / send">
<path id="Vector" fill-rule="evenodd" clip-rule="evenodd" d="M20.4919 1.83437C20.7288 2.07131 20.8091 2.42304 20.6984 2.73932L14.5924 20.185C14.4743 20.5225 14.162 20.7538 13.8046 20.7684C13.4473 20.783 13.1172 20.5779 12.972 20.2511L9.61911 12.7071L2.07515 9.35424C1.74832 9.20899 1.54328 8.87894 1.55786 8.52159C1.57244 8.16423 1.80368 7.85198 2.14126 7.73383L19.5869 1.62785C19.9032 1.51716 20.2549 1.59742 20.4919 1.83437ZM11.3204 12.2395L13.6726 17.532L17.789 5.7708L11.3204 12.2395ZM16.5554 4.5372L4.79424 8.65362L10.0868 11.0059L16.5554 4.5372Z" fill="white"/>
</g>
</svg>
