<svg width="180" height="37" viewBox="0 0 180 37" fill="none" xmlns="http://www.w3.org/2000/svg">
<g id="Frame" clip-path="url(#clip0_38_737)">
<path id="text-0" d="M11.0231 12.0843C13.1344 12.0843 15.0189 12.6148 16.6765 13.6759C18.3278 14.7369 19.6199 16.2024 20.5527 18.0724C21.4792 19.949 21.9424 22.081 21.9424 24.4682C21.9424 26.8887 21.4697 29.0438 20.5243 30.9337C19.5789 32.8237 18.2711 34.2991 16.6009 35.3601C14.9307 36.4211 13.0399 36.9516 10.9285 36.9516C9.35285 36.9516 7.90323 36.577 6.57968 35.8276C5.25612 35.0849 4.1374 34.0504 3.22351 32.7242V36.1559H0.00915527V0.048584H3.22351V16.3615C4.1374 15.0021 5.26557 13.9477 6.60804 13.1984C7.9442 12.4557 9.41587 12.0843 11.0231 12.0843ZM11.0231 33.8681C12.5042 33.8681 13.8277 33.4702 14.9937 32.6744C16.1597 31.8787 17.0736 30.768 17.7354 29.3422C18.3972 27.9165 18.728 26.2918 18.728 24.4682C18.728 22.6778 18.3972 21.0797 17.7354 19.6738C17.0736 18.2614 16.1597 17.1573 14.9937 16.3615C13.8277 15.5658 12.5042 15.1679 11.0231 15.1679C9.51041 15.1679 8.16479 15.5658 6.9862 16.3615C5.8013 17.1573 4.87796 18.268 4.21618 19.6937C3.5544 21.1195 3.22351 22.7275 3.22351 24.518C3.22351 26.3084 3.5544 27.9165 4.21618 29.3422C4.87796 30.768 5.8013 31.8787 6.9862 32.6744C8.16479 33.4702 9.51041 33.8681 11.0231 33.8681ZM36.1234 36.9516C34.012 36.9516 32.1212 36.4211 30.451 35.3601C28.7808 34.2991 27.473 32.8137 26.5276 30.9039C25.5822 29.0007 25.1095 26.8555 25.1095 24.4682C25.1095 22.081 25.5727 19.949 26.4992 18.0724C27.432 16.2024 28.7241 14.7369 30.3754 13.6759C32.033 12.6148 33.9174 12.0843 36.0288 12.0843C38.1402 12.0843 40.031 12.6148 41.7012 13.6759C43.3714 14.7369 44.6792 16.2123 45.6246 18.1022C46.57 19.9921 47.0427 22.1307 47.0427 24.518C47.0427 26.9052 46.5763 29.0438 45.6435 30.9337C44.7171 32.8237 43.425 34.2991 41.7674 35.3601C40.1161 36.4211 38.2348 36.9516 36.1234 36.9516ZM36.0288 33.8681C37.5415 33.8681 38.8871 33.4702 40.0657 32.6744C41.2506 31.8787 42.1739 30.768 42.8357 29.3422C43.4975 27.9165 43.8284 26.3084 43.8284 24.518C43.8284 22.7275 43.4975 21.1195 42.8357 19.6937C42.1739 18.268 41.2506 17.1573 40.0657 16.3615C38.8871 15.5658 37.5415 15.1679 36.0288 15.1679C34.5477 15.1679 33.2242 15.5658 32.0582 16.3615C30.8922 17.1573 29.9783 18.2614 29.3165 19.6738C28.6547 21.0797 28.3238 22.6778 28.3238 24.4682C28.3238 26.2918 28.6547 27.9165 29.3165 29.3422C29.9783 30.768 30.8922 31.8787 32.0582 32.6744C33.2242 33.4702 34.5477 33.8681 36.0288 33.8681ZM61.2143 36.9516C59.1029 36.9516 57.2152 36.4211 55.5513 35.3601C53.8811 34.2991 52.5733 32.8137 51.6279 30.9039C50.6825 29.0007 50.2098 26.8555 50.2098 24.4682C50.2098 22.081 50.6731 19.949 51.5996 18.0724C52.5261 16.2024 53.8181 14.7369 55.4757 13.6759C57.1333 12.6148 59.0146 12.0843 61.1197 12.0843C63.2311 12.0843 65.1219 12.6148 66.7921 13.6759C68.4686 14.7369 69.7796 16.2123 70.725 18.1022C71.6704 19.9921 72.1431 22.1307 72.1431 24.518C72.1431 26.9052 71.6767 29.0438 70.7439 30.9337C69.8174 32.8237 68.5253 34.2991 66.8677 35.3601C65.2165 36.4211 63.332 36.9516 61.2143 36.9516ZM61.1197 33.8681C62.6387 33.8681 63.9874 33.4702 65.166 32.6744C66.3509 31.8787 67.2743 30.768 67.9361 29.3422C68.5915 27.9165 68.9193 26.3084 68.9193 24.518C68.9193 22.7275 68.5915 21.1195 67.9361 19.6937C67.2743 18.268 66.3509 17.1573 65.166 16.3615C63.9874 15.5658 62.6387 15.1679 61.1197 15.1679C59.6449 15.1679 58.3213 15.5658 57.149 16.3615C55.9894 17.1573 55.0755 18.2614 54.4074 19.6738C53.7519 21.0797 53.4242 22.6778 53.4242 24.4682C53.4242 26.2918 53.7519 27.9165 54.4074 29.3422C55.0755 30.768 55.9894 31.8787 57.149 32.6744C58.3213 33.4702 59.6449 33.8681 61.1197 33.8681ZM99.4556 36.1559H95.4377L84.3765 19.8429L80.9731 24.0704V36.1559H77.4278V2.23691H80.9731V19.3953L94.5868 2.23691H98.5102L86.4564 17.2567L99.4556 36.1559ZM126.541 36.1559H123.232L119.924 26.6566H106.546L103.568 36.1559H100.023L111.462 2.23691H114.771L126.541 36.1559ZM113.069 7.11089L107.633 23.573H118.836L113.069 7.11089ZM152.682 36.1559H148.947L140.77 21.1858H134.388V36.1559H130.843V2.23691H141.62C143.574 2.23691 145.292 2.63478 146.773 3.43053C148.254 4.22628 149.388 5.34365 150.176 6.78264C150.964 8.22826 151.358 9.87945 151.358 11.7362C151.358 13.9908 150.712 15.9205 149.42 17.5253C148.128 19.1367 146.41 20.2242 144.268 20.7879L152.682 36.1559ZM134.388 5.32045V18.1022H141.148C143.228 18.1022 144.825 17.522 145.941 16.3615C147.063 15.201 147.624 13.6593 147.624 11.7362C147.624 9.81314 147.063 8.26142 145.941 7.08105C144.825 5.90731 143.228 5.32045 141.148 5.32045H134.388ZM168.886 36.1559H165.388V5.32045H155.225V2.23691H179.049V5.32045H168.886V36.1559Z" fill="white"/>
</g>
<defs>
<clipPath id="clip0_38_737">
<rect width="179.059" height="36.903" fill="white" transform="translate(0 0.048584)"/>
</clipPath>
</defs>
</svg>
