<svg width="78" height="77" viewBox="0 0 78 77" fill="none" xmlns="http://www.w3.org/2000/svg">
<g id="Social Icons">
<path id="BG" opacity="0.1" fill-rule="evenodd" clip-rule="evenodd" d="M0.5 38.5C0.5 17.237 17.737 0 39 0C60.263 0 77.5 17.237 77.5 38.5C77.5 59.763 60.263 77 39 77C17.737 77 0.5 59.763 0.5 38.5Z" fill="white"/>
<path id="Path" fill-rule="evenodd" clip-rule="evenodd" d="M59.5333 38.4712C59.5333 39.8598 59.392 41.2465 59.1143 42.5982C58.8435 43.9178 58.4425 45.2134 57.9171 46.4518C57.4038 47.6684 56.7671 48.8407 56.0231 49.934C55.2902 51.0204 54.446 52.0396 53.5185 52.9687C52.589 53.8938 51.5663 54.7358 50.4804 55.4718C49.3836 56.2106 48.2095 56.8464 46.9922 57.3621C45.752 57.8847 44.4534 58.2851 43.135 58.5554C41.7815 58.8338 40.3897 58.976 38.9991 58.976C37.6074 58.976 36.2157 58.8338 34.8642 58.5554C33.5437 58.2851 32.2452 57.8847 31.0059 57.3621C29.7887 56.8464 28.6136 56.2106 27.5167 55.4718C26.4308 54.7358 25.4081 53.8938 24.4806 52.9687C23.5522 52.0396 22.7079 51.0204 21.974 49.934C21.234 48.8407 20.5963 47.6683 20.081 46.4518C19.5555 45.2134 19.1535 43.9177 18.8818 42.5982C18.6071 41.2465 18.4667 39.8598 18.4667 38.4712C18.4667 37.0815 18.607 35.6918 18.8819 34.3431C19.1536 33.0235 19.5556 31.7259 20.0811 30.4895C20.5964 29.272 21.2341 28.0986 21.9741 27.0053C22.708 25.918 23.5523 24.9007 24.4807 23.9706C25.4082 23.0454 26.4309 22.2055 27.5168 21.4706C28.6137 20.7286 29.7888 20.0929 31.006 19.5763C32.2453 19.0525 33.5437 18.6511 34.8642 18.3828C36.2158 18.1065 37.6075 17.9663 38.9992 17.9663C40.3898 17.9663 41.7815 18.1065 43.1351 18.3828C44.4535 18.6512 45.752 19.0526 46.9923 19.5763C48.2095 20.0929 49.3836 20.7286 50.4805 21.4706C51.5664 22.2055 52.5892 23.0454 53.5186 23.9706C54.446 24.9007 55.2903 25.918 56.0232 27.0053C56.7671 28.0986 57.4038 29.2721 57.9171 30.4895C58.4425 31.7259 58.8435 33.0235 59.1143 34.3431C59.392 35.6918 59.5333 37.0815 59.5333 38.4712ZM31.5172 22.6329C26.6272 24.9388 22.9775 29.4382 21.8395 34.8608C22.3018 34.8648 29.6091 34.9569 38.0284 32.7231C34.9934 27.3386 31.7508 22.9444 31.5172 22.6329ZM39.4812 35.4195C30.4524 38.1187 21.7884 37.9245 21.4776 37.9125C21.4725 38.1007 21.4635 38.2829 21.4635 38.4712C21.4635 42.9695 23.163 47.0705 25.9564 50.1713C25.9504 50.1623 30.7492 41.661 40.2122 38.6053C40.4408 38.5293 40.6734 38.4611 40.904 38.3951C40.4639 37.3999 39.9835 36.4027 39.4812 35.4195ZM50.5797 25.3292C47.4925 22.6109 43.4388 20.962 38.999 20.962C37.5742 20.962 36.1916 21.1342 34.8671 21.4526C35.1297 21.8051 38.4235 26.1683 41.4224 31.6669C48.039 29.1899 50.5366 25.3933 50.5797 25.3292ZM42.0993 41.2966C42.0603 41.3095 42.0212 41.3207 41.983 41.3346C31.6368 44.9363 28.2581 52.1946 28.2215 52.2738C31.1985 54.5856 34.9324 55.9803 38.9991 55.9803C41.4275 55.9803 43.7406 55.4866 45.8452 54.5927C45.5855 53.0628 44.5668 47.7003 42.0993 41.2966ZM48.798 52.9927C52.7354 50.3396 55.5318 46.1265 56.3118 41.2464C55.9509 41.1303 51.0449 39.5794 45.3849 40.4855C47.6849 46.7972 48.6195 51.9375 48.798 52.9927ZM42.7721 34.2761C43.1791 35.1111 43.5733 35.961 43.9372 36.8151C44.0666 37.1215 44.1929 37.4219 44.3162 37.7222C50.3401 36.9653 56.2749 38.2388 56.5286 38.2908C56.4885 34.1399 55.0015 30.3302 52.541 27.3477C52.5079 27.3946 49.6955 31.4526 42.7721 34.2761Z" fill="white"/>
</g>
</svg>
