<svg width="77" height="77" viewBox="0 0 77 77" fill="none" xmlns="http://www.w3.org/2000/svg">
<g id="Social Icons">
<path id="BG" opacity="0.1" fill-rule="evenodd" clip-rule="evenodd" d="M0 38.5C0 17.237 17.237 0 38.5 0C59.763 0 77 17.237 77 38.5C77 59.763 59.763 77 38.5 77C17.237 77 0 59.763 0 38.5Z" fill="white"/>
<path id="Path" fill-rule="evenodd" clip-rule="evenodd" d="M38.5019 17.9663C32.9254 17.9663 32.2255 17.9907 30.0353 18.0904C27.8493 18.1905 26.3572 18.5365 25.0516 19.0443C23.7011 19.5688 22.5555 20.2703 21.4142 21.4121C20.272 22.5534 19.5704 23.699 19.0443 25.0491C18.5352 26.3551 18.1887 27.8477 18.0903 30.0328C17.9923 32.223 17.9667 32.9233 17.9667 38.4999C17.9667 44.0764 17.9915 44.7741 18.0907 46.9644C18.1913 49.1503 18.5373 50.6425 19.0447 51.948C19.5696 53.2986 20.2711 54.4442 21.4129 55.5855C22.5538 56.7277 23.6994 57.4309 25.049 57.9554C26.3555 58.4632 27.848 58.8092 30.0336 58.9093C32.2238 59.009 32.9232 59.0334 38.4994 59.0334C44.0764 59.0334 44.7741 59.009 46.9643 58.9093C49.1503 58.8092 50.6441 58.4632 51.9506 57.9554C53.3006 57.4309 54.4445 56.7277 55.5854 55.5855C56.7276 54.4442 57.4292 53.2986 57.9553 51.9485C58.4601 50.6425 58.8066 49.1499 58.9093 46.9648C59.0077 44.7746 59.0333 44.0764 59.0333 38.4999C59.0333 32.9233 59.0077 32.2234 58.9093 30.0332C58.8066 27.8472 58.4601 26.3551 57.9553 25.0495C57.4292 23.699 56.7276 22.5534 55.5854 21.4121C54.4432 20.2699 53.3011 19.5684 51.9493 19.0443C50.6403 18.5365 49.1473 18.1905 46.9613 18.0904C44.7711 17.9907 44.0738 17.9663 38.4955 17.9663H38.5019ZM36.6598 21.6666C37.2065 21.6657 37.8165 21.6666 38.5018 21.6666C43.9843 21.6666 44.6341 21.6862 46.7991 21.7846C48.8011 21.8762 49.8877 22.2107 50.6115 22.4918C51.5697 22.8639 52.2529 23.3088 52.9711 24.0275C53.6898 24.7462 54.1347 25.4306 54.5077 26.3889C54.7888 27.1118 55.1237 28.1984 55.2149 30.2004C55.3133 32.365 55.3346 33.0152 55.3346 38.4951C55.3346 43.975 55.3133 44.6252 55.2149 46.7898C55.1233 48.7918 54.7888 49.8784 54.5077 50.6013C54.1356 51.5596 53.6898 52.2419 52.9711 52.9601C52.2525 53.6788 51.5702 54.1237 50.6115 54.4959C49.8886 54.7782 48.8011 55.1119 46.7991 55.2034C44.6345 55.3018 43.9843 55.3232 38.5018 55.3232C33.019 55.3232 32.3692 55.3018 30.2046 55.2034C28.2026 55.111 27.116 54.7765 26.3918 54.4954C25.4335 54.1233 24.7491 53.6784 24.0304 52.9597C23.3117 52.241 22.8668 51.5583 22.4938 50.5996C22.2128 49.8767 21.8778 48.7901 21.7867 46.7881C21.6883 44.6235 21.6686 43.9733 21.6686 38.49C21.6686 33.0066 21.6883 32.3598 21.7867 30.1953C21.8782 28.1932 22.2128 27.1067 22.4938 26.3829C22.866 25.4246 23.3117 24.7402 24.0304 24.0215C24.7491 23.3028 25.4335 22.8579 26.3918 22.4849C27.1156 22.2026 28.2026 21.8689 30.2046 21.7769C32.0988 21.6914 32.8329 21.6657 36.6598 21.6614V21.6666ZM49.4625 25.076C48.1021 25.076 46.9985 26.1784 46.9985 27.5392C46.9985 28.8995 48.1021 30.0032 49.4625 30.0032C50.8228 30.0032 51.9265 28.8995 51.9265 27.5392C51.9265 26.1788 50.8228 25.076 49.4625 25.076ZM38.502 27.955C32.6786 27.955 27.9571 32.6764 27.9571 38.4998C27.9571 44.3232 32.6786 49.0425 38.502 49.0425C44.3254 49.0425 49.0451 44.3232 49.0451 38.4998C49.0451 32.6764 44.3254 27.955 38.502 27.955ZM38.5019 31.6553C42.2818 31.6553 45.3464 34.7195 45.3464 38.4998C45.3464 42.2797 42.2818 45.3443 38.5019 45.3443C34.7216 45.3443 31.6574 42.2797 31.6574 38.4998C31.6574 34.7195 34.7216 31.6553 38.5019 31.6553Z" fill="white"/>
</g>
</svg>
