<svg width="77" height="77" viewBox="0 0 77 77" fill="none" xmlns="http://www.w3.org/2000/svg">
<g id="Social Icons">
<path id="BG" opacity="0.1" fill-rule="evenodd" clip-rule="evenodd" d="M0 38.5C0 17.237 17.237 0 38.5 0C59.763 0 77 17.237 77 38.5C77 59.763 59.763 77 38.5 77C17.237 77 0 59.763 0 38.5Z" fill="white"/>
<path id="Path" fill-rule="evenodd" clip-rule="evenodd" d="M37.3469 31.2936L37.4277 32.6258L36.0812 32.4627C31.18 31.8374 26.8981 29.7168 23.2626 26.1552L21.4852 24.388L21.0274 25.693C20.0579 28.6021 20.6773 31.6742 22.697 33.7405C23.7742 34.8824 23.5319 35.0455 21.6737 34.3658C21.0274 34.1483 20.4618 33.9852 20.408 34.0667C20.2195 34.2571 20.8658 36.7311 21.3775 37.7099C22.0776 39.0692 23.5049 40.4014 25.0669 41.1899L26.3864 41.8152L24.8245 41.8424C23.3164 41.8424 23.2626 41.8696 23.4241 42.4405C23.9627 44.2077 26.0902 46.0836 28.46 46.8992L30.1297 47.4702L28.6755 48.3402C26.5211 49.5908 23.9897 50.2977 21.4583 50.3521C20.2464 50.3792 19.25 50.488 19.25 50.5696C19.25 50.8414 22.5355 52.3639 24.4475 52.9621C30.1836 54.7292 36.9968 53.968 42.1135 50.9502C45.7491 48.8024 49.3846 44.5339 51.0812 40.4014C51.9968 38.1992 52.9124 34.1755 52.9124 32.2452C52.9124 30.9946 52.9932 30.8314 54.5013 29.3361C55.39 28.4661 56.2248 27.5146 56.3864 27.2427C56.6557 26.7261 56.6288 26.7261 55.2553 27.1883C52.9663 28.0039 52.6431 27.8952 53.7742 26.6718C54.609 25.8018 55.6054 24.2249 55.6054 23.7627C55.6054 23.6811 55.2015 23.8171 54.7437 24.0618C54.2589 24.3336 53.1817 24.7414 52.3738 24.9861L50.9196 25.4483L49.6001 24.5511C48.8729 24.0618 47.8496 23.518 47.311 23.3549C45.9376 22.9743 43.837 23.0286 42.5983 23.4636C39.232 24.6871 37.1046 27.8408 37.3469 31.2936Z" fill="white"/>
</g>
</svg>
