<svg width="78" height="77" viewBox="0 0 78 77" fill="none" xmlns="http://www.w3.org/2000/svg">
<g id="Social Icons">
<path id="BG" opacity="0.1" fill-rule="evenodd" clip-rule="evenodd" d="M0.5 38.5C0.5 17.237 17.737 0 39 0C60.263 0 77.5 17.237 77.5 38.5C77.5 59.763 60.263 77 39 77C17.737 77 0.5 59.763 0.5 38.5Z" fill="white"/>
<path id="Path" fill-rule="evenodd" clip-rule="evenodd" d="M55.0442 25.2645C56.8113 25.7494 58.2029 27.1781 58.6751 28.9924C59.5333 32.2807 59.5333 39.1416 59.5333 39.1416C59.5333 39.1416 59.5333 46.0024 58.6751 49.2908C58.2029 51.1052 56.8113 52.5339 55.0442 53.019C51.842 53.9 39 53.9 39 53.9C39 53.9 26.158 53.9 22.9555 53.019C21.1885 52.5339 19.7969 51.1052 19.3246 49.2908C18.4667 46.0024 18.4667 39.1416 18.4667 39.1416C18.4667 39.1416 18.4667 32.2807 19.3246 28.9924C19.7969 27.1781 21.1885 25.7494 22.9555 25.2645C26.158 24.3833 39 24.3833 39 24.3833C39 24.3833 51.842 24.3833 55.0442 25.2645ZM35.15 33.3665V46.1998L45.4167 39.7834L35.15 33.3665Z" fill="white"/>
</g>
</svg>
