<svg width="31" height="31" viewBox="0 0 31 31" fill="none" xmlns="http://www.w3.org/2000/svg">
<g id="USWDS Components">
<g id="Icons">
<g id="Fill">
<path id="Vector" fill-rule="evenodd" clip-rule="evenodd" d="M9.66675 24.25C8.06258 24.25 6.76467 25.5625 6.76467 27.1667C6.76467 28.7709 8.06258 30.0834 9.66675 30.0834C11.2709 30.0834 12.5834 28.7709 12.5834 27.1667C12.5834 25.5625 11.2709 24.25 9.66675 24.25ZM0.916748 0.916687V3.83335H3.83341L9.08342 14.9021L7.11467 18.475C6.88133 18.8834 6.75008 19.3646 6.75008 19.875C6.75008 21.4792 8.06258 22.7917 9.66675 22.7917H27.1667V19.875H10.2792C10.0751 19.875 9.91467 19.7146 9.91467 19.5104L9.95842 19.3354L11.2709 16.9584H22.1355C23.2292 16.9584 24.1917 16.3604 24.6876 15.4563L29.9084 5.99169C30.0251 5.78752 30.0834 5.5396 30.0834 5.29169C30.0834 4.4896 29.4272 3.83335 28.6251 3.83335H7.05633L5.6855 0.916687H0.916748ZM24.2501 24.25C22.6459 24.25 21.348 25.5625 21.348 27.1667C21.348 28.7709 22.6459 30.0834 24.2501 30.0834C25.8542 30.0834 27.1667 28.7709 27.1667 27.1667C27.1667 25.5625 25.8542 24.25 24.2501 24.25Z" fill="#683EE6"/>
</g>
</g>
</g>
</svg>
